PathFileType	4	(X/Y/Z)	Run_400 02
DataRate	CameraRate	NumFrames	NumMarkers	Units	OrigDataRate	OrigDataStartFrame	OrigNumFrames
100	100	4	42	mm	100	460	128
Frame#	Time	RASI			LPSI			RPSI			RTH1			RTH2			RTH3			LTH1			LTH2			LTH3			RTB1			RTB2			RTB3			LTB1			LTB2			LTB3			RCAL			RTOE			RMT5			LCAL			LTOE			LMT5			LACR			RACR			CLAV			C7			RUA1			RUA2			RUA3			RLEL			RMEL			LUA2			LUA3			LLEL			LMEL			RFAsuperior			RFAradius			RFAulna			LFAsuperior			LFAradius			LFAulna			LUA1			LASI		
		X1	Y1	Z1	X2	Y2	Z2	X3	Y3	Z3	X4	Y4	Z4	X5	Y5	Z5	X6	Y6	Z6	X7	Y7	Z7	X8	Y8	Z8	X9	Y9	Z9	X10	Y10	Z10	X11	Y11	Z11	X12	Y12	Z12	X13	Y13	Z13	X14	Y14	Z14	X15	Y15	Z15	X16	Y16	Z16	X17	Y17	Z17	X18	Y18	Z18	X19	Y19	Z19	X20	Y20	Z20	X21	Y21	Z21	X22	Y22	Z22	X23	Y23	Z23	X24	Y24	Z24	X25	Y25	Z25	X26	Y26	Z26	X27	Y27	Z27	X28	Y28	Z28	X29	Y29	Z29	X30	Y30	Z30	X31	Y31	Z31	X32	Y32	Z32	X33	Y33	Z33	X34	Y34	Z34	X35	Y35	Z35	X36	Y36	Z36	X37	Y37	Z37	X38	Y38	Z38	X39	Y39	Z39	X40	Y40	Z40	X41	Y41	Z41	X42	Y42	Z42	

460	  4.600000	1185.279337	945.124076	-162.033694	1024.442536	1019.183489	-338.570346	1019.957071	1008.272236	-246.679302	1145.527534	769.842421	-123.234250	1193.390770	673.372441	-127.959031	1144.667234	538.392643	-138.951417	1138.256462	831.085491	-487.374775	1232.852937	721.571221	-472.963486	1202.204114	591.753137	-444.203171	1016.108656	410.405149	-216.495955	922.328435	471.265386	-171.165580	847.339653	459.050680	-233.862729	1241.408734	321.900799	-345.515404	1190.886697	269.834383	-385.256650	1176.305157	200.191209	-319.305088	763.657648	591.938165	-231.269844	717.608541	360.652763	-246.778766	696.358997	379.136829	-171.986346	1014.374493	105.834725	-296.751405	1276.447997	 57.433764	-266.682754	1224.926046	 55.232284	-352.446115	1225.653968	1465.959216	-483.675782	1237.658912	1456.824955	-136.694809	1279.984771	1398.981135	-281.788511	1172.463647	1503.999301	-310.086390	1162.599385	1333.301193	-59.031951	1091.125196	1339.143158	-52.448964	1092.491374	1265.839354	-38.502581	1046.422812	1201.600626	-15.017133	1001.801408	1206.467942	-96.636065	1060.309991	1328.086456	-538.187068	1076.316625	1255.054629	-579.962449	1045.488926	1197.494961	-600.490084	1015.806151	1176.658449	-516.001823	1125.936293	1158.672315	-40.217394	1245.985678	1080.348452	-126.133926	1210.710503	1027.526530	-89.344415	1127.184891	1167.217560	-595.589120	1285.619978	1155.247867	-522.942863	1273.045839	1088.097938	-549.086361	1149.999774	1359.522564	-557.971275	1198.908510	968.415245	-419.962102	
461	  4.610000	1181.465940	945.309380	-160.979974	1023.638954	1020.178044	-339.840978	1016.698423	1009.082889	-247.809885	1147.723283	771.148281	-121.330564	1204.054402	678.670109	-125.201300	1167.157205	542.123090	-137.119457	1135.133295	827.746712	-486.528987	1225.430387	713.804268	-469.664394	1187.845008	586.391328	-442.002884	1045.379739	410.709501	-215.363333	950.181396	466.494588	-170.243139	875.063888	452.160253	-232.116283	1214.880654	315.209998	-344.080468	1162.611834	265.173666	-383.151808	1143.859647	197.270972	-318.064230	783.023602	580.864081	-228.900298	753.032742	346.973094	-245.053278	731.881224	363.335449	-169.813739	977.454505	107.986508	-296.975194	1243.565643	 57.238624	-265.986325	1192.118091	 55.283820	-352.021722	1231.774742	1464.320545	-482.583841	1230.025532	1456.347488	-135.436215	1277.836256	1398.152518	-278.946318	1170.754584	1501.881753	-310.957782	1149.494144	1335.096542	-59.473759	1077.678745	1342.473094	-57.149746	1076.630123	1269.842878	-41.664321	1028.395063	1206.762555	-19.488246	989.526741	1210.974052	-103.715227	1071.165536	1320.772998	-539.181130	1091.337781	1248.474661	-580.010491	1064.144780	1189.494252	-600.905999	1030.917135	1168.036317	-517.859236	1107.347095	1160.521286	-39.553470	1230.975571	1080.433569	-119.712398	1192.257377	1028.369997	-85.562898	1147.927749	1162.079829	-592.906299	1302.443910	1151.861605	-516.249580	1291.932964	1084.787520	-544.161812	1159.767628	1355.947743	-557.465233	1197.658500	967.699203	-417.926049	
462	  4.620000	1178.525294	948.005800	-159.688553	1022.827850	1021.982765	-340.978831	1013.992965	1011.089200	-248.864109	1150.705466	774.776594	-119.305716	1214.353445	687.206943	-123.441932	1188.993618	549.360308	-136.175118	1131.126843	826.360904	-485.595013	1218.788661	708.139737	-466.689604	1174.058023	582.977579	-441.041254	1074.762914	413.145078	-214.356868	977.231491	461.903821	-170.003243	902.498171	444.171395	-231.221247	1187.256437	310.696119	-342.808977	1134.182703	262.271031	-381.857830	1111.242400	195.939419	-317.500053	801.253783	566.669151	-228.281993	789.618449	331.020861	-242.571511	768.044279	346.174331	-167.222497	941.136207	110.644587	-297.543538	1207.571024	 56.582905	-264.908061	1156.135635	 55.388167	-351.452908	1238.259311	1464.677150	-480.966490	1221.591660	1458.209597	-134.361472	1275.938724	1399.260220	-275.810077	1169.103899	1501.658145	-312.235594	1135.284266	1340.304552	-59.430401	1063.534526	1348.904157	-61.917766	1060.287681	1276.875533	-44.384794	1009.967734	1214.879390	-23.504388	976.490292	1218.609823	-109.746305	1081.045489	1316.746043	-539.659365	1104.902498	1245.095022	-578.853964	1079.787683	1185.354040	-599.658356	1045.505839	1163.984737	-516.734872	1088.161723	1166.266280	-38.434441	1215.849463	1086.520069	-114.299318	1174.926953	1034.733454	-83.307839	1164.900557	1160.512620	-589.428939	1317.430265	1154.422409	-508.567233	1309.842002	1087.570274	-537.616039	1168.507251	1355.305548	-556.471375	1196.761804	967.485377	-416.493624	
463	  4.630000	1176.528681	952.771329	-158.280499	1022.275702	1024.397159	-341.762442	1012.359877	1014.146896	-249.578919	1154.493928	780.840632	-117.229911	1224.709966	698.689294	-122.371605	1209.393004	560.096376	-135.838959	1126.801974	826.748005	-484.322351	1211.371071	705.303657	-464.178625	1159.750224	581.225358	-440.724951	1104.198264	417.208421	-213.849623	1003.389228	457.815320	-170.282051	929.963163	435.305178	-231.405618	1158.246016	307.733812	-341.541424	1104.610649	260.813875	-381.258693	1078.076946	195.566626	-317.245856	818.612503	549.412773	-229.408670	827.924455	313.470403	-239.460198	805.703901	328.077643	-164.104633	905.156198	114.068260	-298.256390	1168.549773	 55.821294	-263.517907	1117.174555	 55.347949	-350.751414	1244.645971	1467.031603	-478.687574	1212.937409	1462.239590	-133.547386	1274.093272	1402.194349	-272.289649	1168.096074	1503.941967	-313.406218	1120.760518	1348.591861	-59.385802	1049.596263	1358.045270	-67.090939	1044.282716	1286.523266	-46.973019	992.020751	1225.382037	-27.518208	962.950893	1228.660733	-115.257384	1090.434209	1316.193335	-540.675113	1116.977217	1244.505088	-577.094808	1092.966943	1184.115040	-597.526726	1059.085310	1163.552506	-513.608903	1069.896766	1176.514413	-38.270826	1201.075534	1097.301916	-109.935428	1159.154137	1045.602549	-81.404392	1178.526964	1161.854030	-585.418831	1330.132807	1162.532056	-499.944824	1326.429525	1095.863379	-529.504301	1177.696664	1356.627612	-555.164070	1196.377038	967.927560	-416.297557	
